<svg width="180" height="180" viewBox="0 0 180 180" fill="none" xmlns="http://www.w3.org/2000/svg">
<g clip-path="url(#clip0_1_23)">
<path d="M90.0002 180C139.706 180 180 139.706 180 90.0002C180 40.2945 139.706 0 90.0002 0C40.2945 0 0 40.2945 0 90.0002C0 139.706 40.2945 180 90.0002 180Z" fill="#FFC10E"/>
<path d="M62.6434 73.0918C70.4498 73.0918 76.7782 66.7634 76.7782 58.9571C76.7782 51.1507 70.4498 44.8223 62.6434 44.8223C54.8371 44.8223 48.5087 51.1507 48.5087 58.9571C48.5087 66.7634 54.8371 73.0918 62.6434 73.0918Z" fill="#333333"/>
<path d="M116.092 73.0918C123.898 73.0918 130.227 66.7634 130.227 58.9571C130.227 51.1507 123.898 44.8223 116.092 44.8223C108.285 44.8223 101.957 51.1507 101.957 58.9571C101.957 66.7634 108.285 73.0918 116.092 73.0918Z" fill="#333333"/>
<path d="M39.9848 124.036C72.7944 124.036 105.606 124.036 138.415 124.036C142.998 124.036 142.998 116.93 138.415 116.93C105.606 116.93 72.7944 116.93 39.9848 116.93C35.4017 116.93 35.4017 124.036 39.9848 124.036Z" fill="#333333"/>
</g>
<defs>
<clipPath id="clip0_1_23">
<rect width="180" height="180" fill="white"/>
</clipPath>
</defs>
</svg>
