<svg width="180" height="180" viewBox="0 0 180 180" fill="none" xmlns="http://www.w3.org/2000/svg">
<g clip-path="url(#clip0_1_32)">
<path d="M90.0002 180C139.706 180 180 139.706 180 90.0002C180 40.2945 139.706 0 90.0002 0C40.2945 0 0 40.2945 0 90.0002C0 139.706 40.2945 180 90.0002 180Z" fill="#FFC10E"/>
<path d="M149.079 90.0598C149.079 122.691 122.625 149.142 89.9945 149.142C57.3653 149.142 30.9125 122.691 30.9125 90.0598H149.079Z" fill="white"/>
<path d="M62.6434 73.0903C70.4498 73.0903 76.7782 66.7619 76.7782 58.9556C76.7782 51.1492 70.4498 44.8208 62.6434 44.8208C54.8371 44.8208 48.5087 51.1492 48.5087 58.9556C48.5087 66.7619 54.8371 73.0903 62.6434 73.0903Z" fill="#333333"/>
<path d="M116.092 73.0903C123.898 73.0903 130.227 66.7619 130.227 58.9556C130.227 51.1492 123.898 44.8208 116.092 44.8208C108.285 44.8208 101.957 51.1492 101.957 58.9556C101.957 66.7619 108.285 73.0903 116.092 73.0903Z" fill="#333333"/>
</g>
<defs>
<clipPath id="clip0_1_32">
<rect width="180" height="180" fill="white"/>
</clipPath>
</defs>
</svg>
