<svg width="180" height="180" viewBox="0 0 180 180" fill="none" xmlns="http://www.w3.org/2000/svg">
<g clip-path="url(#clip0_1_41)">
<path d="M90.0002 180C139.706 180 180 139.706 180 90.0002C180 40.2945 139.706 0 90.0002 0C40.2945 0 0 40.2945 0 90.0002C0 139.706 40.2945 180 90.0002 180Z" fill="#FFC10E"/>
<path d="M69.1734 41.7668C63.8056 41.7668 58.8192 44.3844 55.8218 48.7674L55.2035 49.5532L54.7899 49.026C51.8267 44.4828 46.8315 41.7684 41.4087 41.7684C32.1556 41.7684 25.441 48.4848 25.441 57.7349C25.441 71.3933 50.1688 91.5251 51.9721 92.9744C52.8233 93.7887 53.9376 94.2365 55.1199 94.2365C56.3022 94.2365 57.4166 93.7902 58.2677 92.9733C60.0767 91.5122 85.1399 71.0652 85.1399 57.7349C85.1399 48.4833 78.425 41.7668 69.1734 41.7668Z" fill="#ED3533"/>
<path d="M139.272 41.7668C133.904 41.7668 128.918 44.3844 125.92 48.7674L125.302 49.5532L124.888 49.026C121.925 44.4828 116.93 41.7684 111.507 41.7684C102.254 41.7684 95.5396 48.4848 95.5396 57.7349C95.5396 71.3933 120.267 91.5251 122.071 92.9744C122.922 93.7887 124.036 94.2365 125.218 94.2365C126.399 94.2365 127.514 93.7902 128.366 92.9733C130.174 91.5137 155.237 71.0652 155.237 57.7349C155.238 48.4833 148.523 41.7668 139.272 41.7668Z" fill="#ED3533"/>
<path d="M130.369 120.344C107.854 143.256 71.6276 143.076 49.3002 120.003C46.1098 116.706 41.0904 121.735 44.2765 125.027C69.2558 150.841 110.227 150.979 135.392 125.368C138.605 122.099 133.583 117.072 130.369 120.344Z" fill="#333333"/>
</g>
<defs>
<clipPath id="clip0_1_41">
<rect width="180" height="180" fill="white"/>
</clipPath>
</defs>
</svg>
