<svg width="180" height="180" viewBox="0 0 180 180" fill="none" xmlns="http://www.w3.org/2000/svg">
<path d="M89.9998 180C139.705 180 180 139.705 180 89.9998C180 40.2943 139.705 0 89.9998 0C40.2943 0 0 40.2943 0 89.9998C0 139.705 40.2943 180 89.9998 180Z" fill="#FFC10E"/>
<path d="M135.463 134.487C110.311 108.806 69.2814 108.912 44.2751 134.754C41.0889 138.045 46.1084 143.076 49.2987 139.777C71.6574 116.674 107.934 116.532 130.439 139.51C133.65 142.789 138.671 137.761 135.463 134.487Z" fill="#333333"/>
<path d="M62.6433 73.0915C70.4496 73.0915 76.7779 66.7633 76.7779 58.9569C76.7779 51.1506 70.4496 44.8223 62.6433 44.8223C54.837 44.8223 48.5087 51.1506 48.5087 58.9569C48.5087 66.7633 54.837 73.0915 62.6433 73.0915Z" fill="#333333"/>
<path d="M116.092 73.0915C123.898 73.0915 130.227 66.7633 130.227 58.9569C130.227 51.1506 123.898 44.8223 116.092 44.8223C108.286 44.8223 101.957 51.1506 101.957 58.9569C101.957 66.7633 108.286 73.0915 116.092 73.0915Z" fill="#333333"/>
</svg>
